<?xml version="1.0" encoding="UTF-8"?>
<!-- Generator: Adobe Illustrator 25.0.0, SVG Export Plug-In . SVG Version: 6.00 Build 0)  -->
<svg xmlns="http://www.w3.org/2000/svg" xmlns:xlink="http://www.w3.org/1999/xlink" version="1.1" id="Layer_2_1_" x="0px" y="0px" viewBox="0 0 1192.3 312" style="enable-background:new 0 0 1192.3 312;" xml:space="preserve">
<style type="text/css">
	.st0{clip-path:url(#SVGID_2_);}
	.st1{clip-path:url(#SVGID_4_);fill:#0B1F41;}
	.st2{opacity:0.32;clip-path:url(#SVGID_6_);}
	.st3{clip-path:url(#SVGID_8_);}
	.st4{clip-path:url(#SVGID_10_);fill:#F4FAFB;}
	.st5{clip-path:url(#SVGID_6_);fill:#D51A5F;}
	.st6{clip-path:url(#SVGID_6_);fill:#00B0D7;}
	.st7{clip-path:url(#SVGID_6_);fill:#84BE41;}
	.st8{clip-path:url(#SVGID_6_);fill:#8EA5AC;}
	.st9{clip-path:url(#SVGID_6_);fill:#F99F3F;}
</style>
<g>
	<defs>
		<rect id="SVGID_1_" x="-8.1" y="24.1" width="1220.1" height="467.8"></rect>
	</defs>
	<clipPath id="SVGID_2_">
		<use xlink:href="#SVGID_1_" style="overflow:visible;"></use>
	</clipPath>
	<g class="st0">
		<defs>
			<rect id="SVGID_3_" x="-8.1" y="24.1" width="1220.1" height="467.8"></rect>
		</defs>
		<clipPath id="SVGID_4_">
			<use xlink:href="#SVGID_3_" style="overflow:visible;"></use>
		</clipPath>
		<path class="st1" d="M-112.5-48.1c-59.6-76.7-403.4,637.9-403.4,637.9h1718.2V80.9c0,0-141.6,26.5-427.4,95.6    C259.8,301-36.1,50-112.5-48.1"></path>
	</g>
	<g class="st0">
		<defs>
			<polygon id="SVGID_5_" points="-8.1,24.1 -8.1,190.3 195.7,221.8 311.7,241.3 421.9,255.9 522.4,265.7 583.8,270.6 1212,387.7      1212,31.3 1168.2,24.1    "></polygon>
		</defs>
		<clipPath id="SVGID_6_">
			<use xlink:href="#SVGID_5_" style="overflow:visible;"></use>
		</clipPath>
		<g class="st2">
			<g>
				<defs>
					<rect id="SVGID_7_" x="-72.6" y="-177.4" width="1482.4" height="712"></rect>
				</defs>
				<clipPath id="SVGID_8_">
					<use xlink:href="#SVGID_7_" style="overflow:visible;"></use>
				</clipPath>
				<g class="st3">
					<defs>
						
							<rect id="SVGID_9_" x="423.8" y="-532.5" transform="matrix(0.1607 -0.987 0.987 0.1607 384.886 809.8052)" width="489.7" height="1422.1"></rect>
					</defs>
					<clipPath id="SVGID_10_">
						<use xlink:href="#SVGID_9_" style="overflow:visible;"></use>
					</clipPath>
					<path class="st4" d="M1308.7,180c0,0-827.9,106.3-899.9,108.2c-49.6,1.3-321.4,5.1-435.3-85.5l0.9-7.1c0,0,89.5,113.2,428,57.9       c85.7-14,209-37.1,372.6-77c243.5-59.3,531.3-122.4,585.9-117.8L1308.7,180z"></path>
				</g>
			</g>
		</g>
		<path class="st5" d="M1312.4,133c-43.2,11.7-267.3,120.8-638.3,126.3c-178.8,2.6-602.5-47.3-743-113.2c-3.5-1.6-5.5,2-5.5,2    C98.4,224.3,559.2,286,742.7,271.5c300.5-23.7,549.2-123.4,572.5-135.6C1315.1,135.9,1315.7,132.1,1312.4,133"></path>
		<path class="st6" d="M1282.6,101.1c-15.4-6.4-578.3,158.2-930.6,94C194.4,166.4,46.9,109.2-54.6-23c-2.5-3.3-5.3,0.6-5.3,0.6    C66.3,134.2,180.1,173.2,343.6,203.9c283.4,53.2,914.2-87.6,937.6-94.8L1282.6,101.1z"></path>
		<path class="st7" d="M1309.6,96.3c-15.9-6.6-588.5,195.8-950.8,136C196.7,205.5,67.1,127.2-40-17c-2.6-3.5-5.4,0.9-5.4,0.9    c133,170.5,227.6,229.7,395.8,258.4c291.5,49.9,934.2-128.3,958-137.1L1309.6,96.3z"></path>
		<path class="st8" d="M1310.1,83.1c-15.9-6.6-586.9,191.4-950.8,135.9c-162.5-24.8-309.6-97-416.7-241.2c-2.6-3.5-5.4,0.9-5.4,0.9    c133,170.5,244,222.4,411.1,256.7C623,291.8,1285.1,100.8,1308.9,92L1310.1,83.1z"></path>
		<path class="st9" d="M-58.8,43.8c224.4,171.7,292.9,172.9,316.9,176.5c0,0,0.3,0.1,0,0C130.7,190.8-47.8,39.2-60.7,32.4    L-58.8,43.8"></path>
	</g>
</g>
</svg>
